<svg height="512" viewBox="0 0 58 58" width="512" xmlns="http://www.w3.org/2000/svg"><g id="018---Islamic-Symbol" fill="none"><circle id="Oval" cx="29" cy="29" fill="#3b97d3" r="29"/><path id="Shape" d="m58 29c0 16.0162577-12.9837423 29-29 29v-58c16.0162577 0 29 12.9837423 29 29z" fill="#2980ba"/><path id="Shape" d="m21.81 10.21c-3.17 3.67-9.46 13.41 1.07 24 11.12 9.84 20.12 4.79 23.91 1.79.254182-.2051541.6128085-.2193848.8824472-.0350165.2696387.1843684.3865001.523719.2875528.8350165-.9970623 3.0776762-2.7506331 5.8558824-5.1 8.08-9.33 8.26-23.23 8.51-31.58-1.14-3.99577588-4.5997414-5.86943754-10.6697163-5.16150662-16.7213838.70793091-6.0516675 3.93197762-11.5253067 8.88150662-15.0786162 1.8068795-1.3259981 3.8400094-2.31206602 6-2.91.319783-.13626484.6912937-.02814445.8880158.25843832.1967221.28658278.1640833.67212778-.0780158.92156168z" fill="#f0c419"/><path id="Shape" d="m10 30c-.55228475 0-1-.4477153-1-1 .08621455-3.6575393 1.2555451-7.2072928 3.36-10.2.1856644-.3306199.5423533-.5277886.9210793-.5091497.3787259.018639.7143308.2498789.8666337.5971318.152303.3472529.0951009.7507755-.147713 1.0420179-1.870355 2.6624424-2.9138909 5.8173992-3 9.07 0 .2652165-.1053568.5195704-.2928932.7071068s-.4418903.2928932-.7071068.2928932z" fill="#f29c1f"/><path id="Shape" d="m29.25 14.35c-.3301036.0043852-.6411005-.1544337-.8310897-.4244184s-.2344859-.6163407-.1189103-.9255816c.7090221-2.0783499 2.5257474-3.58197996 4.7-3.89l1.54-.23c.79-1.69 1.21-2.91 2.87-4 .4749649-.28442665 1.0905734-.12996488 1.375.345s.1299649 1.09057335-.345 1.375c-1.2.77-1.46 1.71-2.35 3.61-.1418164.2993668-.4226787.5090773-.75.56-1.84.28-2.78.3-3.75 1-.6503506.4726659-1.1364142 1.1370694-1.39 1.9-.1375721.4073117-.5200841.6811098-.95.68z" fill="#35495e"/><path id="Shape" d="m40.09 22.08-3.27 1.81c-.2845491.1561778-.6336149.1344366-.8965853-.0558428s-.3927781-.5150402-.3334147-.8341572l.64-4c.0434217-.2660375-.0419191-.5369017-.23-.73l-2.76-2.84c-.2214824-.2245857-.2984797-.5543201-.1993663-.8537691.0991134-.2994491.3576295-.5181332.6693663-.5662309l3.75-.58c.2784712-.0412517.5163152-.2224662.63-.48l1.65-3.51c.1385696-.29435852.4346564-.48222912.76-.48222912s.6214304.1878706.76.48222912l1.65 3.56c.1136848.2575338.3515288.4387483.63.48l3.75.58c.3117368.0480977.5702529.2667818.6693663.5662309.0991134.299449.0221161.6291834-.1993663.8537691l-2.76 2.84c-.1880809.1930983-.2734217.4639625-.23.73l.64 4c.050078.315822-.0835015.6326849-.3445648.8173394s-.6043253.2050698-.8854352.0526606l-3.27-1.81c-.250089-.1500047-.5596183-.1613289-.82-.03z" fill="#f0c419"/></g></svg>