<svg height="512" viewBox="0 0 58 58" width="512" xmlns="http://www.w3.org/2000/svg"><g id="018---Islamic-Symbol"><path id="Shape" d="m22.21 35c-10.55-10.65-5.21-20.43-1.73-24.76-1.7429879.5880284-3.3879448 1.4341025-4.88 2.51-4.6923164 3.3530606-7.75879912 8.5243481-8.45 14.25-.68762028 5.7832475 1.08683854 11.5892477 4.89 16 3.4159116 4.1156854 8.3730999 6.6467079 13.71 7 6.0488266.2929475 11.9662153-1.8293986 16.45-5.9 2.0096355-1.8848332 3.5506638-4.2134981 4.5-6.8-4.11 3.03-13.39 7.5-24.49-2.3zm-8.21-15.07c-1.5755239 2.2440705-2.565493 4.8461768-2.88 7.57-.0645788.4977291-.1046272.9983344-.12 1.5 0 .5522847-.4477153 1-1 1-.55228475 0-1-.4477153-1-1 0-.58.06-1.15.13-1.71.34475448-3.0567935 1.4557594-5.977051 3.23-8.49.1856644-.3306199.5423533-.5277886.9210793-.5091497.3787259.018639.7143308.2498789.8666337.5971318.152303.3472529.0951009.7507755-.147713 1.0420179z"/><path id="Shape" d="m37.61 14.47-3.44.53 2.55 2.63c.4050466.4192179.5901298 1.0040807.5 1.58l-.6 3.65 3-1.66c.5528575-.3099396 1.2271425-.3099396 1.78 0l3 1.66-.6-3.65c-.0901298-.5759193.0949534-1.1607821.5-1.58l2.53-2.63-3.44-.53c-.6009982-.0809425-1.122202-.4559092-1.39-1l-1.5-3.21-1.5 3.17c-.2574967.5595432-.7805325.9508794-1.39 1.04z"/><path id="Shape" d="m29 0c-16.0162577 0-29 12.9837423-29 29s12.9837423 29 29 29 29-12.9837423 29-29-12.9837423-29-29-29zm11.5 8c.7153981-.0013628 1.3667341.41206004 1.67 1.06l1.61 3.45 3.66.56c.6789107.1035645 1.242685.5785251 1.46 1.23.2206891.6560005.0588805 1.3802863-.42 1.88l-2.71 2.82.63 3.9c.1078426.6948631-.1875751 1.3907895-.7623459 1.7958862-.5747708.4050968-1.3295089.4493171-1.9476541.1141138l-3.19-1.81-3.19 1.77c-.6181452.3352033-1.3728833.290983-1.9476541-.1141138-.5747708-.4050967-.8701885-1.1010231-.7623459-1.7958862l.63-3.9-2.71-2.78c-.4788805-.4997137-.6406891-1.2239995-.42-1.88.217315-.6514749.7810893-1.1264355 1.46-1.23l3.66-.56 1.61-3.45c.3032659-.64793996.9546019-1.0613628 1.67-1.06zm-12.2 5c.7050469-2.0810904 2.5237983-3.58639742 4.7-3.89l1.54-.23.71-1.51c.4685224-1.00797368 1.2186866-1.85885433 2.16-2.45.2991445-.26323996.7260236-.32375637 1.0865469-.15403405.3605233.16972233.5858758.53728763.5735959.93557385-.01228.39828621-.2598485.75127042-.6301428.8984602-.623076.38911983-1.122533.94754042-1.44 1.61l-.93 2c-.1418164.2993668-.4226787.5090773-.75.56l-2.08.32c-.6022421.0927413-1.1742751.3256649-1.67.68-.6503506.4726659-1.1364142 1.1370694-1.39 1.9-.0843151.2523526-.26572.4607006-.5040704.5789374-.2383505.1182369-.5139931.1366133-.7659296.0510626-.2559002-.0879783-.4652214-.2759086-.5801703-.5208816-.1149489-.2449731-.1257112-.5260734-.0298297-.7791184zm20.6 24.1c-1.0461849 3.2400856-2.8932272 6.1637093-5.37 8.5-4.5184359 4.0501913-10.3525 6.3241262-16.42 6.4-.5 0-1 0-1.49 0-5.8468177-.3948589-11.2872278-3.1312878-15.09-7.59-4.17172087-4.8120041-6.12486941-11.1579549-5.38086856-17.4829135.74400085-6.3249587 4.11640182-12.0444684 9.29086856-15.7570865 1.9205081-1.39733366 4.0788814-2.43416603 6.37-3.06.7318201-.19086592 1.502795.11576257 1.9036334.75710411.4008385.64134154.3386167 1.46871799-.1536334 2.04289589-3 3.48-8.9 12.66 1 22.65 10.23 9.07 18.54 5 22.58 1.68.6053096-.4910541 1.4633334-.5196549 2.1-.07.6243817.425233.8932544 1.2114821.66 1.93z"/></g></svg>